<svg width="116" height="29" viewBox="0 0 116 29" fill="none" xmlns="http://www.w3.org/2000/svg">
<g clip-path="url(#clip0_2_157)">
<path d="M16.4523 8.27174C11.5277 6.52107 6.17495 6.37647 1.16302 7.85873C0.963802 7.9064 0.776232 7.99373 0.61151 8.1155C0.446788 8.23727 0.308292 8.39098 0.204291 8.56746C0.10029 8.74394 0.0329167 8.93956 0.00619382 9.14266C-0.020529 9.34575 -0.00605357 9.55215 0.048756 9.74952C0.323068 10.8504 0.723194 12.1152 1.20376 13.262C1.21201 13.2888 1.2249 13.2759 1.2249 13.2491C1.15529 12.7113 1.56882 12.0322 2.3799 11.7852C6.27775 10.5447 10.4726 10.6002 14.3362 11.9435C14.4787 11.9923 14.6295 12.012 14.7798 12.0015C14.93 11.991 15.0767 11.9506 15.211 11.8825C15.3454 11.8145 15.4648 11.7202 15.5621 11.6053C15.6595 11.4904 15.7329 11.3571 15.7779 11.2134C16.2585 9.66651 16.4523 8.61618 16.5003 8.35321C16.5085 8.30423 16.4652 8.28566 16.4523 8.27226V8.27174ZM4.57079 11.6749C3.9804 11.7981 3.16416 11.992 2.5516 12.1951C1.32699 12.6174 1.38371 14.1076 2.03597 14.583C2.08393 14.3066 2.3799 13.9307 2.7099 13.8039C3.93244 13.3233 5.24522 13.0361 6.57244 12.9175C5.89801 12.6437 5.24007 12.2513 4.57955 11.6744L4.57079 11.6749ZM14.3197 14.6583C12.5603 13.8316 10.6531 13.3661 8.71074 13.2891C6.76837 13.2121 4.83028 13.5253 3.01102 14.2102C2.42785 14.4304 2.06279 15.1399 2.42785 15.8133C3.0656 16.9663 3.78935 18.0696 4.59296 19.1138C4.47746 18.7137 4.68165 17.9727 5.4654 17.7304C7.63308 17.0642 9.90751 17.3467 11.4193 17.9588C11.8463 18.1305 12.4506 18.0263 12.7893 17.519C13.3671 16.629 13.8925 15.7062 14.363 14.7552C14.3842 14.7124 14.363 14.6804 14.3197 14.6583ZM10.8073 20.0001C10.1732 19.6799 9.59324 19.2622 9.08869 18.7621C8.85511 18.5286 8.51119 18.1929 8.14871 17.7928C7.32113 17.7928 6.51779 17.8758 5.65876 18.1501C4.86108 18.3996 4.78632 19.3211 5.1354 19.8016C5.72579 20.5374 6.13983 20.9345 6.80035 21.6171C7.15039 21.9605 7.62046 22.1539 8.11077 22.1563C8.60109 22.1587 9.07303 21.9699 9.42643 21.63C9.94205 21.1144 10.2592 20.7705 10.8418 20.11C10.8764 20.0749 10.863 20.0136 10.8068 20.0001H10.8073Z" fill="black"/>
</g>
<path d="M32.95 7.548V10.892H27.668V12.754H31.468V15.927H27.668V21H23.45V7.548H32.95ZM43.5747 18.967H39.0907L38.4257 21H33.9987L38.9197 7.548H43.7837L48.6857 21H44.2397L43.5747 18.967ZM42.5487 15.794L41.3327 12.051L40.1167 15.794H42.5487ZM55.477 21.133C53.8684 21.133 52.5384 20.7593 51.487 20.012C50.4484 19.252 49.8847 18.1437 49.796 16.687H54.28C54.3434 17.4597 54.6854 17.846 55.306 17.846C55.534 17.846 55.724 17.7953 55.876 17.694C56.0407 17.58 56.123 17.409 56.123 17.181C56.123 16.8643 55.952 16.611 55.61 16.421C55.268 16.2183 54.736 15.9903 54.014 15.737C53.1527 15.433 52.437 15.1353 51.867 14.844C51.3097 14.5527 50.8284 14.1283 50.423 13.571C50.0177 13.0137 49.8214 12.298 49.834 11.424C49.834 10.55 50.0557 9.809 50.499 9.201C50.955 8.58033 51.5694 8.11167 52.342 7.795C53.1274 7.47833 54.0077 7.32 54.983 7.32C56.6297 7.32 57.9344 7.7 58.897 8.46C59.8724 9.22 60.3854 10.2903 60.436 11.671H55.895C55.8824 11.291 55.7874 11.0187 55.61 10.854C55.4327 10.6893 55.2174 10.607 54.964 10.607C54.7867 10.607 54.641 10.6703 54.527 10.797C54.413 10.911 54.356 11.0757 54.356 11.291C54.356 11.595 54.5207 11.8483 54.85 12.051C55.192 12.241 55.7304 12.4753 56.465 12.754C57.3137 13.0707 58.0104 13.3747 58.555 13.666C59.1124 13.9573 59.5937 14.3627 59.999 14.882C60.4044 15.4013 60.607 16.0537 60.607 16.839C60.607 17.6623 60.4044 18.4033 59.999 19.062C59.5937 19.708 59.0047 20.2147 58.232 20.582C57.4594 20.9493 56.541 21.133 55.477 21.133ZM75.104 7.548V21H70.886V15.756H66.877V21H62.659V7.548H66.877V12.393H70.886V7.548H75.104ZM81.7898 7.548V21H77.5718V7.548H81.7898ZM90.8198 21.133C89.5532 21.133 88.3878 20.8353 87.3238 20.24C86.2725 19.6447 85.4365 18.8213 84.8158 17.77C84.1952 16.7187 83.8848 15.5343 83.8848 14.217C83.8848 12.8997 84.1952 11.7153 84.8158 10.664C85.4365 9.61267 86.2725 8.79567 87.3238 8.213C88.3878 7.61767 89.5532 7.32 90.8198 7.32C92.0865 7.32 93.2455 7.61767 94.2968 8.213C95.3482 8.79567 96.1778 9.61267 96.7858 10.664C97.4065 11.7153 97.7168 12.8997 97.7168 14.217C97.7168 15.5343 97.4065 16.7187 96.7858 17.77C96.1778 18.8213 95.3418 19.6447 94.2778 20.24C93.2265 20.8353 92.0738 21.133 90.8198 21.133ZM90.8198 17.2C91.6558 17.2 92.3018 16.934 92.7578 16.402C93.2138 15.8573 93.4418 15.129 93.4418 14.217C93.4418 13.2923 93.2138 12.564 92.7578 12.032C92.3018 11.4873 91.6558 11.215 90.8198 11.215C89.9712 11.215 89.3188 11.4873 88.8628 12.032C88.4068 12.564 88.1788 13.2923 88.1788 14.217C88.1788 15.129 88.4068 15.8573 88.8628 16.402C89.3188 16.934 89.9712 17.2 90.8198 17.2ZM112.709 21H108.491L104.026 14.236V21H99.8085V7.548H104.026L108.491 14.426V7.548H112.709V21Z" fill="black"/>
<defs>
<clipPath id="clip0_2_157">
<rect width="16.5" height="16.5" fill="white" transform="translate(0 6.25)"/>
</clipPath>
</defs>
</svg>
